<svg width="253" height="53" viewBox="0 0 253 53" fill="none" xmlns="http://www.w3.org/2000/svg">
<path d="M34.1422 5.85781C30.3647 2.08031 25.3422 0 20 0C14.6578 0 9.63531 2.08031 5.85781 5.85781C2.08031 9.63531 0 14.6578 0 20C0 25.3422 2.08039 30.3646 5.85781 34.1422C9.63523 37.9198 14.6578 40 20 40C25.3422 40 30.3647 37.9197 34.1422 34.1422C37.9197 30.3647 40 25.3422 40 20C40 14.6578 37.9196 9.63539 34.1422 5.85781Z" fill="#33CC95"/>
<path d="M20.5713 8V33.1429" stroke="white" stroke-width="2" stroke-linecap="round" stroke-linejoin="round"/>
<path d="M26.2853 12.5715H17.7139C16.653 12.5715 15.6356 12.993 14.8854 13.7431C14.1353 14.4933 13.7139 15.5107 13.7139 16.5715C13.7139 17.6324 14.1353 18.6498 14.8854 19.4C15.6356 20.1501 16.653 20.5715 17.7139 20.5715H23.4282C24.489 20.5715 25.5064 20.993 26.2566 21.7431C27.0067 22.4933 27.4282 23.5107 27.4282 24.5715C27.4282 25.6324 27.0067 26.6498 26.2566 27.4C25.5064 28.1501 24.489 28.5715 23.4282 28.5715H13.7139" stroke="white" stroke-width="2" stroke-linecap="round" stroke-linejoin="round"/>
<path d="M66.568 12.152V29H62.464V18.896L58.696 29H55.384L51.592 18.872V29H47.488V12.152H52.336L57.064 23.816L61.744 12.152H66.568ZM75.6153 29.192C74.3033 29.192 73.1193 28.912 72.0633 28.352C71.0233 27.792 70.1993 26.992 69.5913 25.952C68.9993 24.912 68.7033 23.696 68.7033 22.304C68.7033 20.928 69.0073 19.72 69.6152 18.68C70.2233 17.624 71.0553 16.816 72.1113 16.256C73.1673 15.696 74.3513 15.416 75.6633 15.416C76.9753 15.416 78.1593 15.696 79.2153 16.256C80.2713 16.816 81.1033 17.624 81.7113 18.68C82.3193 19.72 82.6233 20.928 82.6233 22.304C82.6233 23.68 82.3113 24.896 81.6873 25.952C81.0793 26.992 80.2393 27.792 79.1673 28.352C78.1113 28.912 76.9273 29.192 75.6153 29.192ZM75.6153 25.64C76.3993 25.64 77.0633 25.352 77.6073 24.776C78.1673 24.2 78.4473 23.376 78.4473 22.304C78.4473 21.232 78.1753 20.408 77.6313 19.832C77.1033 19.256 76.4473 18.968 75.6633 18.968C74.8633 18.968 74.1993 19.256 73.6713 19.832C73.1433 20.392 72.8793 21.216 72.8793 22.304C72.8793 23.376 73.1353 24.2 73.6473 24.776C74.1753 25.352 74.8313 25.64 75.6153 25.64ZM92.9605 15.464C94.5285 15.464 95.7765 15.976 96.7045 17C97.6485 18.008 98.1205 19.4 98.1205 21.176V29H94.0405V21.728C94.0405 20.832 93.8085 20.136 93.3445 19.64C92.8805 19.144 92.2565 18.896 91.4725 18.896C90.6885 18.896 90.0645 19.144 89.6005 19.64C89.1365 20.136 88.9045 20.832 88.9045 21.728V29H84.8005V15.608H88.9045V17.384C89.3205 16.792 89.8805 16.328 90.5845 15.992C91.2885 15.64 92.0805 15.464 92.9605 15.464ZM113.596 22.088C113.596 22.472 113.572 22.872 113.524 23.288H104.236C104.3 24.12 104.564 24.76 105.028 25.208C105.508 25.64 106.092 25.856 106.78 25.856C107.804 25.856 108.516 25.424 108.916 24.56H113.284C113.06 25.44 112.652 26.232 112.06 26.936C111.484 27.64 110.756 28.192 109.876 28.592C108.996 28.992 108.012 29.192 106.924 29.192C105.612 29.192 104.444 28.912 103.42 28.352C102.396 27.792 101.596 26.992 101.02 25.952C100.444 24.912 100.156 23.696 100.156 22.304C100.156 20.912 100.436 19.696 100.996 18.656C101.572 17.616 102.372 16.816 103.396 16.256C104.42 15.696 105.596 15.416 106.924 15.416C108.22 15.416 109.372 15.688 110.38 16.232C111.388 16.776 112.172 17.552 112.732 18.56C113.308 19.568 113.596 20.744 113.596 22.088ZM109.396 21.008C109.396 20.304 109.156 19.744 108.676 19.328C108.196 18.912 107.596 18.704 106.876 18.704C106.188 18.704 105.604 18.904 105.124 19.304C104.66 19.704 104.372 20.272 104.26 21.008H109.396ZM129.441 15.608L121.041 35.36H116.625L119.697 28.544L114.249 15.608H118.833L121.929 23.984L125.001 15.608H129.441ZM148.851 17.576C148.851 18.552 148.627 19.448 148.179 20.264C147.731 21.064 147.043 21.712 146.115 22.208C145.187 22.704 144.035 22.952 142.659 22.952H140.115V29H136.011V12.152H142.659C144.003 12.152 145.139 12.384 146.067 12.848C146.995 13.312 147.691 13.952 148.155 14.768C148.619 15.584 148.851 16.52 148.851 17.576ZM142.347 19.688C143.131 19.688 143.715 19.504 144.099 19.136C144.483 18.768 144.675 18.248 144.675 17.576C144.675 16.904 144.483 16.384 144.099 16.016C143.715 15.648 143.131 15.464 142.347 15.464H140.115V19.688H142.347ZM155.092 11.24V29H150.988V11.24H155.092ZM157.25 22.28C157.25 20.904 157.506 19.696 158.018 18.656C158.546 17.616 159.258 16.816 160.154 16.256C161.05 15.696 162.05 15.416 163.154 15.416C164.098 15.416 164.922 15.608 165.626 15.992C166.346 16.376 166.898 16.88 167.282 17.504V15.608H171.386V29H167.282V27.104C166.882 27.728 166.322 28.232 165.602 28.616C164.898 29 164.074 29.192 163.13 29.192C162.042 29.192 161.05 28.912 160.154 28.352C159.258 27.776 158.546 26.968 158.018 25.928C157.506 24.872 157.25 23.656 157.25 22.28ZM167.282 22.304C167.282 21.28 166.994 20.472 166.418 19.88C165.858 19.288 165.17 18.992 164.354 18.992C163.538 18.992 162.842 19.288 162.266 19.88C161.706 20.456 161.426 21.256 161.426 22.28C161.426 23.304 161.706 24.12 162.266 24.728C162.842 25.32 163.538 25.616 164.354 25.616C165.17 25.616 165.858 25.32 166.418 24.728C166.994 24.136 167.282 23.328 167.282 22.304ZM182.515 15.464C184.083 15.464 185.331 15.976 186.259 17C187.203 18.008 187.675 19.4 187.675 21.176V29H183.595V21.728C183.595 20.832 183.363 20.136 182.899 19.64C182.435 19.144 181.811 18.896 181.027 18.896C180.243 18.896 179.619 19.144 179.155 19.64C178.691 20.136 178.459 20.832 178.459 21.728V29H174.355V15.608H178.459V17.384C178.875 16.792 179.435 16.328 180.139 15.992C180.843 15.64 181.635 15.464 182.515 15.464ZM198.687 15.464C200.255 15.464 201.503 15.976 202.431 17C203.375 18.008 203.847 19.4 203.847 21.176V29H199.767V21.728C199.767 20.832 199.535 20.136 199.071 19.64C198.607 19.144 197.983 18.896 197.199 18.896C196.415 18.896 195.791 19.144 195.327 19.64C194.863 20.136 194.631 20.832 194.631 21.728V29H190.527V15.608H194.631V17.384C195.047 16.792 195.607 16.328 196.311 15.992C197.015 15.64 197.807 15.464 198.687 15.464ZM219.323 22.088C219.323 22.472 219.299 22.872 219.251 23.288H209.963C210.027 24.12 210.291 24.76 210.755 25.208C211.235 25.64 211.819 25.856 212.507 25.856C213.531 25.856 214.243 25.424 214.643 24.56H219.011C218.787 25.44 218.379 26.232 217.787 26.936C217.211 27.64 216.483 28.192 215.603 28.592C214.723 28.992 213.739 29.192 212.651 29.192C211.339 29.192 210.171 28.912 209.147 28.352C208.123 27.792 207.323 26.992 206.747 25.952C206.171 24.912 205.883 23.696 205.883 22.304C205.883 20.912 206.163 19.696 206.723 18.656C207.299 17.616 208.099 16.816 209.123 16.256C210.147 15.696 211.323 15.416 212.651 15.416C213.947 15.416 215.099 15.688 216.107 16.232C217.115 16.776 217.899 17.552 218.459 18.56C219.035 19.568 219.323 20.744 219.323 22.088ZM215.123 21.008C215.123 20.304 214.883 19.744 214.403 19.328C213.923 18.912 213.323 18.704 212.603 18.704C211.915 18.704 211.331 18.904 210.851 19.304C210.387 19.704 210.099 20.272 209.987 21.008H215.123ZM225.592 17.84C226.072 17.104 226.672 16.528 227.392 16.112C228.112 15.68 228.912 15.464 229.792 15.464V19.808H228.664C227.64 19.808 226.872 20.032 226.36 20.48C225.848 20.912 225.592 21.68 225.592 22.784V29H221.488V15.608H225.592V17.84Z" fill="white"/>
</svg>
